PathFileType	4	(X/Y/Z)	/Users/itak/Documents/Research/Walk-IL/dataset/trc/00493_00167.trc
DataRate	CameraRate	NumFrames	NumMarkers	Units	OrigDataRate	OrigDataStartFrame	OrigNumFrames
100.000000	100.000000	4	53	mm	100.000000	0	596
Frame#	Time	RPSI			LPSI			L3			STRN			T10			C7			CLAV			RBAK			LBAK			LSHO			LUPA			LAEL			LAOL			LWTS			LWPS			LFRA			LIFD			LHPS			LHTS			RSHO			RUPA			RAEL			RAOL			RWTS			RWPS			RFRA			RIFD			RHTS			RHPS			RBHD			LFHD			RFHD			LBHD			LHIP			RHIP			RASI			LASI			LKNE			LTHI			LANK			LTIP			LTOE			LMT1			LMT5			LHEE			RKNE			RTHI			RANK			RTIP			RTOE			RMT1			RMT5			RHEE			
		X1	Y1	Z1	X2	Y2	Z2	X3	Y3	Z3	X4	Y4	Z4	X5	Y5	Z5	X6	Y6	Z6	X7	Y7	Z7	X8	Y8	Z8	X9	Y9	Z9	X10	Y10	Z10	X11	Y11	Z11	X12	Y12	Z12	X13	Y13	Z13	X14	Y14	Z14	X15	Y15	Z15	X16	Y16	Z16	X17	Y17	Z17	X18	Y18	Z18	X19	Y19	Z19	X20	Y20	Z20	X21	Y21	Z21	X22	Y22	Z22	X23	Y23	Z23	X24	Y24	Z24	X25	Y25	Z25	X26	Y26	Z26	X27	Y27	Z27	X28	Y28	Z28	X29	Y29	Z29	X30	Y30	Z30	X31	Y31	Z31	X32	Y32	Z32	X33	Y33	Z33	X34	Y34	Z34	X35	Y35	Z35	X36	Y36	Z36	X37	Y37	Z37	X38	Y38	Z38	X39	Y39	Z39	X40	Y40	Z40	X41	Y41	Z41	X42	Y42	Z42	X43	Y43	Z43	X44	Y44	Z44	X45	Y45	Z45	X46	Y46	Z46	X47	Y47	Z47	X48	Y48	Z48	X49	Y49	Z49	X50	Y50	Z50	X51	Y51	Z51	X52	Y52	Z52	X53	Y53	Z53	

1	0	-1612.24267578125	964.6312866210938	-375.4369812011719	-1533.843872070312	967.1427612304688	-493.5965881347656	-1570.196655273438	1058.322143554688	-411.4794921875	-1327.651000976562	1262.712158203125	-298.2432861328125	-1584.12255859375	1182.512451171875	-422.8399047851562	-1536.460083007812	1454.114501953125	-390.6502685546875	-1359.692504882812	1374.299926757812	-322.2243957519531	-1629.384643554688	1334.817749023438	-327.65380859375	-1523.802001953125	1401.814575195312	-492.0595703125	-1399.564697265625	1425.209594726562	-522.0262451171875	-1365.105712890625	1307.648193359375	-614.8427734375	-1320.9912109375	1095.936401367188	-640.14208984375	-1418.036865234375	1073.324829101562	-611.7345581054688	-1221.54541015625	914.5960083007812	-568.0731811523438	-1264.097900390625	883.2203369140625	-629.7547607421875	-1289.178344726562	1010.507629394531	-637.804443359375	-1221.403564453125	741.3700561523438	-558.0169067382812	-1247.301147460938	807.4620361328125	-624.1793823242188	-1218.546997070312	819.283447265625	-558.77685546875	-1540.287109375	1429.983764648438	-216.2262878417969	-1588.447143554688	1371.042724609375	-152.8921051025391	-1604.730102539062	1084.234008789062	-93.85019683837891	-1635.334228515625	1068.068725585938	-151.9203643798828	-1500.467895507812	873.5955200195312	-96.42307281494141	-1583.192504882812	863.5886840820312	-65.44052886962891	-1606.739379882812	1026.181762695312	-82.57958984375	-1510.112182617188	717.3580932617188	-92.65773010253906	-1495.757080078125	775.3887329101562	-82.61716461181641	-1571.072021484375	774.6544189453125	-64.28102111816406	-1508.516845703125	1652.7626953125	-290.0479431152344	-1311.99462890625	1676.415283203125	-354.5929870605469	-1381.493530273438	1677.045043945312	-242.7208557128906	-1430.638916015625	1655.083862304688	-450.0011291503906	-1353.5087890625	870.5684204101562	-520.1373291015625	-1592.475219726562	860.9955444335938	-197.6470489501953	-1469.340209960938	903.1315307617188	-193.2171630859375	-1313.597534179688	906.2840576171875	-398.9804077148438	-1350.250366210938	450.1323547363281	-482.9819946289062	-1324.4365234375	602.8228149414062	-491.2465209960938	-1435.39892578125	42.6838493347168	-534.27001953125	-1360.277465820312	298.8236999511719	-506.352783203125	-1281.431396484375	43.74042510986328	-345.8921508789062	-1358.594116210938	51.17680358886719	-368.1582946777344	-1299.476440429688	49.31743621826172	-462.8529663085938	-1506.632202148438	48.53884124755859	-502.7056579589844	-1550.637817382812	471.3679504394531	-192.9485778808594	-1562.837890625	728.87646484375	-161.7545318603516	-1622.135009765625	39.14850234985352	-214.7488250732422	-1563.221801757812	328.421875	-181.6088562011719	-1405.426391601562	47.43315124511719	-160.3988647460938	-1447.66943359375	57.22037124633789	-217.2477111816406	-1514.6220703125	45.9453125	-130.4378356933594	-1655.2060546875	32.08848571777344	-286.248046875	
2	0.01	-1612.235595703125	964.7562866210938	-375.4127807617188	-1533.80615234375	967.2859497070312	-493.5754699707031	-1570.093383789062	1058.342163085938	-411.4911193847656	-1327.710205078125	1262.7119140625	-297.9591369628906	-1583.970825195312	1182.475830078125	-422.9566040039062	-1536.394897460938	1454.12255859375	-390.6561279296875	-1359.735107421875	1374.317504882812	-321.9498291015625	-1629.355590820312	1334.789428710938	-327.8430786132812	-1523.579467773438	1401.860107421875	-492.0786743164062	-1399.342163085938	1425.239868164062	-521.8515625	-1364.486572265625	1307.664916992188	-614.5424194335938	-1320.107788085938	1095.905517578125	-639.558349609375	-1417.443115234375	1073.462280273438	-611.55859375	-1220.6826171875	914.753173828125	-567.454345703125	-1263.303100585938	883.24951171875	-629.1919555664062	-1288.378295898438	1010.516052246094	-637.1880493164062	-1220.58837890625	741.3239135742188	-557.34326171875	-1246.510864257812	807.4947509765625	-623.6405029296875	-1218.088012695312	819.2937622070312	-558.0880737304688	-1540.491455078125	1429.986206054688	-216.2677917480469	-1588.754272460938	1371.02587890625	-153.0309600830078	-1604.9404296875	1084.221557617188	-93.77716827392578	-1635.411499023438	1067.89990234375	-151.9025115966797	-1499.981689453125	873.9703369140625	-95.97471618652344	-1582.732543945312	863.659423828125	-65.17477416992188	-1606.77880859375	1026.161865234375	-82.49366760253906	-1508.961791992188	717.7010498046875	-91.99832153320312	-1494.893188476562	775.801025390625	-81.98146057128906	-1570.278930664062	774.79150390625	-63.81414794921875	-1508.629272460938	1652.859497070312	-290.0297546386719	-1311.994995117188	1676.447875976562	-354.5226135253906	-1381.518920898438	1677.177490234375	-242.6192779541016	-1430.62060546875	1655.06103515625	-449.9272155761719	-1353.497680664062	870.5953979492188	-520.0777587890625	-1592.517822265625	861.0451049804688	-197.6896820068359	-1469.344970703125	903.1401977539062	-193.1152496337891	-1313.641357421875	906.237060546875	-398.9098510742188	-1350.535278320312	450.1353759765625	-483.1528930664062	-1324.616577148438	602.8308715820312	-491.3606262207031	-1435.401977539062	42.66351699829102	-534.2791748046875	-1360.47314453125	298.8657836914062	-506.4981079101562	-1281.435424804688	43.74458694458008	-345.8994140625	-1358.595458984375	51.18239974975586	-368.1672973632812	-1299.479248046875	49.32558822631836	-462.8592529296875	-1506.62744140625	48.52469635009766	-502.6979675292969	-1550.865844726562	471.3891296386719	-193.0284729003906	-1563.069458007812	728.899658203125	-161.8185882568359	-1622.143798828125	39.16221618652344	-214.7543640136719	-1563.342651367188	328.4372863769531	-181.7221374511719	-1405.431030273438	47.43765258789062	-160.3993225097656	-1447.667846679688	57.21308898925781	-217.2518157958984	-1514.625244140625	45.95074462890625	-130.4539642333984	-1655.2109375	32.08021545410156	-286.2466735839844	
3	0.02	-1612.229248046875	964.9205932617188	-375.4050598144531	-1533.747314453125	967.465576171875	-493.5625305175781	-1569.957153320312	1058.372192382812	-411.5288696289062	-1327.782592773438	1262.70654296875	-297.6018981933594	-1583.792236328125	1182.448608398438	-423.1065979003906	-1536.307373046875	1454.136596679688	-390.6690368652344	-1359.786743164062	1374.331420898438	-321.6029052734375	-1629.318237304688	1334.75244140625	-328.073974609375	-1523.306396484375	1401.92529296875	-492.0960693359375	-1399.032958984375	1425.289306640625	-521.616943359375	-1363.712524414062	1307.682495117188	-614.16015625	-1319.00634765625	1095.859008789062	-638.7936401367188	-1416.629150390625	1073.563842773438	-611.267578125	-1219.762084960938	914.884765625	-566.6237182617188	-1262.350830078125	883.2662963867188	-628.455322265625	-1287.3935546875	1010.519775390625	-636.3822021484375	-1219.695678710938	741.2316284179688	-556.5017700195312	-1245.559326171875	807.4915771484375	-622.91748046875	-1217.521362304688	819.2579345703125	-557.2169189453125	-1540.741088867188	1429.985229492188	-216.3101348876953	-1589.12451171875	1371.006958007812	-153.1946868896484	-1605.173950195312	1084.203369140625	-93.67617034912109	-1635.484741210938	1067.6826171875	-151.860595703125	-1499.32958984375	874.4488525390625	-95.40750122070312	-1582.111083984375	863.7547607421875	-64.82924652099609	-1606.799072265625	1026.1357421875	-82.36830139160156	-1507.47607421875	718.1447143554688	-91.13705444335938	-1493.761474609375	776.3390502929688	-81.17375946044922	-1569.227905273438	774.9713745117188	-63.21881484985352	-1508.741088867188	1652.96484375	-289.9855041503906	-1312.005981445312	1676.495361328125	-354.4241027832031	-1381.545532226562	1677.336669921875	-242.4927520751953	-1430.58837890625	1655.034545898438	-449.8278503417969	-1353.473754882812	870.6210327148438	-520.0025024414062	-1592.587036132812	861.1092529296875	-197.7543182373047	-1469.339477539062	903.1558227539062	-192.9898529052734	-1313.693237304688	906.1808471679688	-398.8197326660156	-1350.843872070312	450.14404296875	-483.3395080566406	-1324.806396484375	602.836669921875	-491.47900390625	-1435.406494140625	42.64167404174805	-534.2872924804688	-1360.703369140625	298.9156188964844	-506.6620483398438	-1281.435791015625	43.74744415283203	-345.909912109375	-1358.597290039062	51.18737030029297	-368.1745300292969	-1299.4833984375	49.33374404907227	-462.8661193847656	-1506.623779296875	48.51142120361328	-502.6893005371094	-1551.139526367188	471.4205627441406	-193.1406555175781	-1563.292358398438	728.930908203125	-161.8787384033203	-1622.150634765625	39.17817687988281	-214.7626342773438	-1563.494506835938	328.4608459472656	-181.8564300537109	-1405.442138671875	47.44664764404297	-160.4006805419922	-1447.66796875	57.20362091064453	-217.2581329345703	-1514.627685546875	45.95935440063477	-130.475341796875	-1655.218627929688	32.06597900390625	-286.2468872070312	
4	0.03	-1612.222900390625	965.1181030273438	-375.4248657226562	-1533.664306640625	967.6725463867188	-493.5636901855469	-1569.791625976562	1058.413330078125	-411.5995483398438	-1327.86328125	1262.694091796875	-297.1877746582031	-1583.596313476562	1182.440673828125	-423.2851867675781	-1536.198120117188	1454.157592773438	-390.6907958984375	-1359.843139648438	1374.338134765625	-321.1988830566406	-1629.274780273438	1334.709228515625	-328.3324584960938	-1522.995483398438	1402.010009765625	-492.108154296875	-1398.638549804688	1425.359375	-521.3291625976562	-1362.815673828125	1307.698608398438	-613.7098999023438	-1317.739135742188	1095.794311523438	-637.8651733398438	-1415.610961914062	1073.601196289062	-610.8458862304688	-1218.918090820312	914.9338989257812	-565.5835571289062	-1261.303466796875	883.2581176757812	-627.56103515625	-1286.275634765625	1010.511352539062	-635.406494140625	-1218.82763671875	741.0724487304688	-555.5270385742188	-1244.5166015625	807.4298706054688	-622.0231323242188	-1216.890869140625	819.1534423828125	-556.1902465820312	-1541.021850585938	1429.979248046875	-216.3487548828125	-1589.53466796875	1370.987182617188	-153.3709411621094	-1605.404052734375	1084.178344726562	-93.54763031005859	-1635.538208007812	1067.423583984375	-151.78759765625	-1498.518676757812	875.0143432617188	-94.74205780029297	-1581.332153320312	863.8734130859375	-64.41123962402344	-1606.783569335938	1026.103759765625	-82.19991302490234	-1505.697387695312	718.678466796875	-90.09238433837891	-1492.387817382812	776.9868774414062	-80.21992492675781	-1567.934936523438	775.1900024414062	-62.51544952392578	-1508.836181640625	1653.069213867188	-289.9083251953125	-1312.030883789062	1676.557861328125	-354.2977600097656	-1381.570190429688	1677.510986328125	-242.347412109375	-1430.5400390625	1655.006469726562	-449.7035522460938	-1353.433227539062	870.6417846679688	-519.9125366210938	-1592.687744140625	861.1859741210938	-197.8459625244141	-1469.3193359375	903.1797485351562	-192.8473052978516	-1313.748779296875	906.1185913085938	-398.7127380371094	-1351.1416015625	450.158447265625	-483.5208435058594	-1324.985107421875	602.83740234375	-491.5847473144531	-1435.412719726562	42.62102890014648	-534.293212890625	-1360.943969726562	298.9681396484375	-506.8270568847656	-1281.430419921875	43.74814987182617	-345.9226379394531	-1358.60009765625	51.19067764282227	-368.1780700683594	-1299.488891601562	49.34130859375	-462.8726806640625	-1506.622192382812	48.50046920776367	-502.6800231933594	-1551.443725585938	471.4620666503906	-193.2836151123047	-1563.4775390625	728.9697265625	-161.9308776855469	-1622.15380859375	39.19596862792969	-214.774169921875	-1563.669067382812	328.4934997558594	-182.0018310546875	-1405.460327148438	47.46170043945312	-160.4029998779297	-1447.67041015625	57.19240951538086	-217.2670135498047	-1514.629272460938	45.97154998779297	-130.5014038085938	-1655.229248046875	32.04478073120117	-286.2501525878906	
